<svg version="1.1" xmlns="http://www.w3.org/2000/svg" xmlns:xlink="http://www.w3.org/1999/xlink" width="811.2353515625" height="259"><defs/><g><g transform="translate(-206,-150) scale(1,1)"><rect fill="#C0C0C0" stroke="none" x="223" y="175" width="138.00341796875" height="117" opacity="0.2"/></g><g transform="translate(-206,-150) scale(1,1)"><rect fill="#ffffff" stroke="none" x="216" y="168" width="138.00341796875" height="117"/></g><g transform="translate(-206,-150) scale(1,1)"><path fill="none" stroke="#000000" d="M 216 168 L 354.00341796875 168 L 354.00341796875 285 L 216 285 L 216 168 Z Z" stroke-miterlimit="10"/></g><g transform="translate(-206,-150) scale(1,1)"><path fill="none" stroke="#000000" d="M 216 193 L 354.00341796875 193" stroke-miterlimit="10"/></g><g transform="translate(-206,-150) scale(1,1)"><path fill="none" stroke="#000000" d="M 216 276 L 354.00341796875 276" stroke-miterlimit="10"/></g><g transform="translate(-206,-150) scale(1,1)"><g><path fill="none" stroke="none"/><text fill="#000000" stroke="none" font-family="Arial" font-size="13px" font-style="normal" font-weight="bold" text-decoration="none" x="271.278076171875" y="187.5">User</text></g></g><g transform="translate(-206,-150) scale(1,1)"><g><path fill="none" stroke="none"/><text fill="#000000" stroke="none" font-family="Arial" font-size="13px" font-style="normal" font-weight="normal" text-decoration="none" x="221" y="210.5">+_id: int {unique}</text></g></g><g transform="translate(-206,-150) scale(1,1)"><g><path fill="none" stroke="none"/><text fill="#000000" stroke="none" font-family="Arial" font-size="13px" font-style="normal" font-weight="normal" text-decoration="none" x="221" y="225.5">+email: string {unique}</text></g></g><g transform="translate(-206,-150) scale(1,1)"><g><path fill="none" stroke="none"/><text fill="#000000" stroke="none" font-family="Arial" font-size="13px" font-style="normal" font-weight="normal" text-decoration="none" x="221" y="240.5">+name: string</text></g></g><g transform="translate(-206,-150) scale(1,1)"><g><path fill="none" stroke="none"/><text fill="#000000" stroke="none" font-family="Arial" font-size="13px" font-style="normal" font-weight="normal" text-decoration="none" x="221" y="255.5">-password: string</text></g></g><g transform="translate(-206,-150) scale(1,1)"><g><path fill="none" stroke="none"/><text fill="#000000" stroke="none" font-family="Arial" font-size="13px" font-style="normal" font-weight="normal" text-decoration="none" x="221" y="270.5">+badges: string[]</text></g></g><g transform="translate(-206,-150) scale(1,1)"><rect fill="#C0C0C0" stroke="none" x="575" y="167" width="119.17626953125" height="132" opacity="0.2"/></g><g transform="translate(-206,-150) scale(1,1)"><rect fill="#ffffff" stroke="none" x="568" y="160" width="119.17626953125" height="132"/></g><g transform="translate(-206,-150) scale(1,1)"><path fill="none" stroke="#000000" d="M 568 160 L 687.17626953125 160 L 687.17626953125 292 L 568 292 L 568 160 Z Z" stroke-miterlimit="10"/></g><g transform="translate(-206,-150) scale(1,1)"><path fill="none" stroke="#000000" d="M 568 185 L 687.17626953125 185" stroke-miterlimit="10"/></g><g transform="translate(-206,-150) scale(1,1)"><path fill="none" stroke="#000000" d="M 568 268 L 687.17626953125 268" stroke-miterlimit="10"/></g><g transform="translate(-206,-150) scale(1,1)"><g><path fill="none" stroke="none"/><text fill="#000000" stroke="none" font-family="Arial" font-size="13px" font-style="normal" font-weight="bold" text-decoration="none" x="616.74951171875" y="179.5">Poll</text></g></g><g transform="translate(-206,-150) scale(1,1)"><g><path fill="none" stroke="none"/><text fill="#000000" stroke="none" font-family="Arial" font-size="13px" font-style="normal" font-weight="normal" text-decoration="none" x="573" y="202.5">+_id: int {unique}</text></g></g><g transform="translate(-206,-150) scale(1,1)"><g><path fill="none" stroke="none"/><text fill="#000000" stroke="none" font-family="Arial" font-size="13px" font-style="normal" font-weight="normal" text-decoration="none" x="573" y="217.5">+title: string</text></g></g><g transform="translate(-206,-150) scale(1,1)"><g><path fill="none" stroke="none"/><text fill="#000000" stroke="none" font-family="Arial" font-size="13px" font-style="normal" font-weight="normal" text-decoration="none" x="573" y="232.5">+ongoing: boolean</text></g></g><g transform="translate(-206,-150) scale(1,1)"><g><path fill="none" stroke="none"/><text fill="#000000" stroke="none" font-family="Arial" font-size="13px" font-style="normal" font-weight="normal" text-decoration="none" x="573" y="247.5">+created_at: Date</text></g></g><g transform="translate(-206,-150) scale(1,1)"><g><path fill="none" stroke="none"/><text fill="#000000" stroke="none" font-family="Arial" font-size="13px" font-style="normal" font-weight="normal" text-decoration="none" x="573" y="262.5">+updated_at: Date</text></g></g><g transform="translate(-206,-150) scale(1,1)"><path fill="none" stroke="#000000" d="M 355 226 L 567 226" stroke-miterlimit="10"/></g><g transform="translate(-206,-150) scale(1,1)"><g><path fill="none" stroke="none"/><text fill="#000000" stroke="none" font-family="Arial" font-size="13px" font-style="normal" font-weight="normal" text-decoration="none" x="424.5" y="217.5">+&lt; submitter</text></g></g><g transform="translate(-206,-150) scale(1,1)"><g><path fill="none" stroke="none"/><text fill="#000000" stroke="none" font-family="Arial" font-size="13px" font-style="normal" font-weight="normal" text-decoration="none" x="372.641357421875" y="244.5">1</text></g></g><g transform="translate(-206,-150) scale(1,1)"><g><path fill="none" stroke="none"/><text fill="#000000" stroke="none" font-family="Arial" font-size="13px" font-style="normal" font-weight="normal" text-decoration="none" x="535.5" y="244.5">0..*</text></g></g><g transform="translate(-206,-150) scale(1,1)"><rect fill="#C0C0C0" stroke="none" x="903" y="182" width="111.2353515625" height="102" opacity="0.2"/></g><g transform="translate(-206,-150) scale(1,1)"><rect fill="#ffffff" stroke="none" x="896" y="175" width="111.2353515625" height="102"/></g><g transform="translate(-206,-150) scale(1,1)"><path fill="none" stroke="#000000" d="M 896 175 L 1007.2353515625 175 L 1007.2353515625 277 L 896 277 L 896 175 Z Z" stroke-miterlimit="10"/></g><g transform="translate(-206,-150) scale(1,1)"><path fill="none" stroke="#000000" d="M 896 200 L 1007.2353515625 200" stroke-miterlimit="10"/></g><g transform="translate(-206,-150) scale(1,1)"><path fill="none" stroke="#000000" d="M 896 268 L 1007.2353515625 268" stroke-miterlimit="10"/></g><g transform="translate(-206,-150) scale(1,1)"><g><path fill="none" stroke="none"/><text fill="#000000" stroke="none" font-family="Arial" font-size="13px" font-style="normal" font-weight="bold" text-decoration="none" x="925.601806640625" y="194.5">Question</text></g></g><g transform="translate(-206,-150) scale(1,1)"><g><path fill="none" stroke="none"/><text fill="#000000" stroke="none" font-family="Arial" font-size="13px" font-style="normal" font-weight="normal" text-decoration="none" x="901" y="217.5">+_id: int {unique}</text></g></g><g transform="translate(-206,-150) scale(1,1)"><g><path fill="none" stroke="none"/><text fill="#000000" stroke="none" font-family="Arial" font-size="13px" font-style="normal" font-weight="normal" text-decoration="none" x="901" y="232.5">+title: string</text></g></g><g transform="translate(-206,-150) scale(1,1)"><g><path fill="none" stroke="none"/><text fill="#000000" stroke="none" font-family="Arial" font-size="13px" font-style="normal" font-weight="normal" text-decoration="none" x="901" y="247.5">+answers: string[]</text></g></g><g transform="translate(-206,-150) scale(1,1)"><g><path fill="none" stroke="none"/><text fill="#000000" stroke="none" font-family="Arial" font-size="13px" font-style="normal" font-weight="normal" text-decoration="none" x="901" y="262.5">+votes: int[]</text></g></g><g transform="translate(-206,-150) scale(1,1)"><path fill="none" stroke="#000000" d="M 688 226 L 895 226" stroke-miterlimit="10"/></g><g transform="translate(-206,-150) scale(1,1)"><g><path fill="none" stroke="none"/><text fill="#000000" stroke="none" font-family="Arial" font-size="13px" font-style="normal" font-weight="normal" text-decoration="none" x="759.5" y="217.5">+questions</text></g></g><g transform="translate(-206,-150) scale(1,1)"><g><path fill="none" stroke="none"/><text fill="#000000" stroke="none" font-family="Arial" font-size="13px" font-style="normal" font-weight="normal" text-decoration="none" x="705.5" y="244.5">1</text></g></g><g transform="translate(-206,-150) scale(1,1)"><g><path fill="none" stroke="none"/><text fill="#000000" stroke="none" font-family="Arial" font-size="13px" font-style="normal" font-weight="normal" text-decoration="none" x="863.5" y="244.5">0..*</text></g></g><g transform="translate(-206,-150) scale(1,1)"><rect fill="#C0C0C0" stroke="none" x="439" y="319" width="124.603515625" height="87" opacity="0.2"/></g><g transform="translate(-206,-150) scale(1,1)"><rect fill="#ffffff" stroke="none" x="432" y="312" width="124.603515625" height="87"/></g><g transform="translate(-206,-150) scale(1,1)"><path fill="none" stroke="#000000" d="M 432 312 L 556.603515625 312 L 556.603515625 399 L 432 399 L 432 312 Z Z" stroke-miterlimit="10"/></g><g transform="translate(-206,-150) scale(1,1)"><path fill="none" stroke="#000000" d="M 432 337 L 556.603515625 337" stroke-miterlimit="10"/></g><g transform="translate(-206,-150) scale(1,1)"><path fill="none" stroke="#000000" d="M 432 390 L 556.603515625 390" stroke-miterlimit="10"/></g><g transform="translate(-206,-150) scale(1,1)"><g><path fill="none" stroke="none"/><text fill="#000000" stroke="none" font-family="Arial" font-size="13px" font-style="normal" font-weight="bold" text-decoration="none" x="458.53271484375" y="331.5">Participation</text></g></g><g transform="translate(-206,-150) scale(1,1)"><g><path fill="none" stroke="none"/><text fill="#000000" stroke="none" font-family="Arial" font-size="13px" font-style="normal" font-weight="normal" text-decoration="none" x="437" y="354.5">+_id: int {unique}</text></g></g><g transform="translate(-206,-150) scale(1,1)"><g><path fill="none" stroke="none"/><text fill="#000000" stroke="none" font-family="Arial" font-size="13px" font-style="normal" font-weight="normal" text-decoration="none" x="437" y="369.5">+answers: int[]</text></g></g><g transform="translate(-206,-150) scale(1,1)"><g><path fill="none" stroke="none"/><text fill="#000000" stroke="none" font-family="Arial" font-size="13px" font-style="normal" font-weight="normal" text-decoration="none" x="437" y="384.5">+created_at: Date</text></g></g><g transform="translate(-206,-150) scale(1,1)"><path fill="none" stroke="#000000" d="M 355 239 L 492 264 L 567 243" stroke-miterlimit="10"/></g><g transform="translate(-206,-150) scale(1,1)"><path fill="none" stroke="#000000" d="M 509 311 L 529 253" stroke-miterlimit="10" stroke-dasharray="3"/></g><g transform="translate(-206,-150) scale(1,1)"><path fill="none" stroke="#000000" d="M 355 269 L 431 316" stroke-miterlimit="10"/></g><g transform="translate(-206,-150) scale(1,1)"><g><path fill="none" stroke="none"/><text fill="#000000" stroke="none" font-family="Arial" font-size="13px" font-style="normal" font-weight="normal" text-decoration="none" x="372.5" y="285.5">+history &gt;</text></g></g><g transform="translate(-206,-150) scale(1,1)"><g><path fill="none" stroke="none"/><text fill="#000000" stroke="none" font-family="Arial" font-size="13px" font-style="normal" font-weight="normal" text-decoration="none" x="356.5" y="297.5">0..*</text></g></g><g transform="translate(-206,-150) scale(1,1)"><g><path fill="none" stroke="none"/><text fill="#000000" stroke="none" font-family="Arial" font-size="13px" font-style="normal" font-weight="normal" text-decoration="none" x="402.641357421875" y="321.5">1</text></g></g></g></svg>